<?xml version="1.0" encoding="UTF-8" standalone="no"?>
<!-- Created with Inkscape (http://www.inkscape.org/) -->

<svg
   width="100.00375"
   height="58.911713"
   viewBox="0 0 100.00375 58.911713"
   version="1.1"
   id="svg5"
   inkscape:version="1.2.2 (b0a8486541, 2022-12-01, custom)"
   sodipodi:docname="arrow-down.svg"
   xmlns:inkscape="http://www.inkscape.org/namespaces/inkscape"
   xmlns:sodipodi="http://sodipodi.sourceforge.net/DTD/sodipodi-0.dtd"
   xmlns="http://www.w3.org/2000/svg"
   xmlns:svg="http://www.w3.org/2000/svg">
  <sodipodi:namedview
     id="namedview7"
     pagecolor="#ffffff"
     bordercolor="#666666"
     borderopacity="1.0"
     inkscape:showpageshadow="2"
     inkscape:pageopacity="0.0"
     inkscape:pagecheckerboard="0"
     inkscape:deskcolor="#d1d1d1"
     inkscape:document-units="px"
     showgrid="false"
     inkscape:zoom="5.3400704"
     inkscape:cx="52.340134"
     inkscape:cy="39.793483"
     inkscape:window-width="1848"
     inkscape:window-height="1016"
     inkscape:window-x="72"
     inkscape:window-y="27"
     inkscape:window-maximized="1"
     inkscape:current-layer="layer1" />
  <defs
     id="defs2" />
  <g
     inkscape:label="Слой 1"
     inkscape:groupmode="layer"
     id="layer1"
     transform="translate(-263.30775,-287.89754)">
    <path
       id="rect347"
       style="fill:#ffffff;stroke:none;stroke-width:2;stroke-linecap:round;stroke-linejoin:round"
       d="m 269.53033,289.2431 c -0.93112,0 -1.86076,0.35685 -2.57422,1.07032 l -2.57617,2.57421 c -1.42694,1.42694 -1.42694,3.72541 0,5.15235 l 43.77734,43.77734 2.57617,2.57617 c 1.42693,1.42694 3.72542,1.42694 5.15234,0 l 2.57422,-2.57617 43.7793,-43.77734 c 1.42694,-1.42694 1.42694,-3.72541 0,-5.15235 l -2.57617,-2.57421 c -1.42694,-1.42694 -3.72346,-1.42694 -5.15039,0 l -0.58203,0.58007 -30.32227,30.32422 -6.02148,6.02149 -2.13868,2.13867 c -1.18466,1.18466 -3.09268,1.18466 -4.27734,0 l -2.13867,-2.13867 -7.99805,-8 -28.34765,-28.34571 -0.58008,-0.58007 c -0.71347,-0.71347 -1.64506,-1.07032 -2.57617,-1.07032 z" />
  </g>
</svg>
