<?xml version="1.0" encoding="UTF-8" standalone="no"?>
<!-- Created with Inkscape (http://www.inkscape.org/) -->

<svg
   viewBox="0 0 100.00005 58.267464"
   version="1.1"
   id="svg2049"
   inkscape:version="1.2.2 (b0a8486541, 2022-12-01, custom)"
   sodipodi:docname="Фефилова-лого.svg"
   xmlns:inkscape="http://www.inkscape.org/namespaces/inkscape"
   xmlns:sodipodi="http://sodipodi.sourceforge.net/DTD/sodipodi-0.dtd"
   xmlns="http://www.w3.org/2000/svg"
   xmlns:svg="http://www.w3.org/2000/svg">
  <sodipodi:namedview
     id="namedview2051"
     pagecolor="#ffffff"
     bordercolor="#666666"
     borderopacity="1.0"
     inkscape:showpageshadow="2"
     inkscape:pageopacity="0.0"
     inkscape:pagecheckerboard="0"
     inkscape:deskcolor="#d1d1d1"
     inkscape:document-units="px"
     showgrid="false"
     inkscape:zoom="4.7572176"
     inkscape:cx="38.362761"
     inkscape:cy="13.978759"
     inkscape:window-width="1848"
     inkscape:window-height="1016"
     inkscape:window-x="72"
     inkscape:window-y="27"
     inkscape:window-maximized="1"
     inkscape:current-layer="layer1" />
  <defs
     id="defs2046" />
  <g
     inkscape:label="Слой 1"
     inkscape:groupmode="layer"
     id="layer1"
     transform="translate(-301.97649,-527.36967)">
    <g
       id="g2018"
       transform="matrix(1.9504565,0,0,1.9504565,-943.30235,-843.96932)"
       style="stroke-width:0.5127">
      <path
         id="path1248"
         style="font-size:40px;line-height:1.25;font-family:NewYearNewDay;-inkscape-font-specification:NewYearNewDay;opacity:1;fill:#ffffff;stroke-width:0.262862"
         d="m 653.01172,713.00781 c -0.18028,0.009 -0.3629,0.0387 -0.54492,0.0879 -0.33758,0.0952 -0.63328,0.30592 -0.88868,0.63282 -0.22893,0.32364 -0.34215,0.71346 -0.33984,1.16992 -1.6187,-0.92966 -3.32909,-1.28349 -5.1289,-1.0625 l -0.0391,0.004 c -2.3821,0.29249 -4.31957,1.47117 -5.8125,3.53516 -1.4697,2.03428 -2.04112,4.3873 -1.71289,7.06055 0.32823,2.67325 1.46616,4.83114 3.41406,6.47265 1.94465,1.61505 4.10813,2.27686 6.49024,1.98438 1.79982,-0.22098 3.37304,-0.97979 4.71875,-2.27344 0.17039,0.73135 0.59072,1.20482 1.26172,1.41797 0.24205,0.0677 0.4759,0.0935 0.70117,0.082 -0.50359,-0.69604 -0.7015,-1.60766 -0.59961,-2.4375 l 0.93164,-7.58398 0.26367,-2.14649 -0.64844,-5.2832 c -0.0585,-0.47643 -0.23925,-0.85747 -0.54296,-1.14258 -0.27722,-0.28837 -0.60603,-0.44851 -0.98633,-0.48242 -0.17854,-0.0318 -0.35683,-0.0439 -0.53711,-0.0352 z m -5.92383,4.60352 c 1.17326,-0.0177 2.23735,0.41902 3.19336,1.3125 1.09259,1.02112 1.73338,2.3008 1.92187,3.83594 0.18848,1.53513 -0.1244,2.93043 -0.9375,4.18554 -0.81309,1.25511 -1.90686,1.96577 -3.2832,2.13477 l -0.0391,0.006 c -1.37632,0.16898 -2.61249,-0.25817 -3.70508,-1.2793 -1.06612,-1.02437 -1.69236,-2.30275 -1.88086,-3.83789 -0.12348,-1.00578 -0.0272,-1.973 0.28906,-2.89844 0.31624,-0.92543 0.81219,-1.698 1.48829,-2.31836 0.70257,-0.6236 1.51698,-0.99172 2.44335,-1.10547 0.17205,-0.0211 0.34216,-0.0326 0.50977,-0.0352 z" />
      <path
         d="m 686.1153,726.47207 q -1.22035,2.20516 -3.68188,2.50739 l -0.0397,0.004 q -1.98509,0.24374 -3.54457,-1.2977 -1.51978,-1.54631 -1.80251,-3.84902 -0.28274,-2.30271 0.8575,-4.17563 1.14025,-1.87292 3.12535,-2.11666 2.69972,-0.33148 4.14984,1.30398 0.79681,0.90968 1.84925,0.61925 1.08728,-0.335 1.37705,-1.25719 0.3246,-0.96676 -0.40254,-1.96559 -2.79647,-3.08218 -7.44158,-2.51183 l -0.0398,0.004 q -3.45406,0.42411 -5.61405,3.51035 -2.16485,3.04654 -1.6725,7.05642 0.49235,4.00989 3.33481,6.4819 2.83757,2.43232 6.33133,2.00334 4.48631,-0.55084 6.58362,-4.4757 0.3239,-0.64428 0.21108,-1.23493 -0.078,-0.63523 -0.52864,-1.0232 -0.45064,-0.38797 -0.99114,-0.52311 -0.54537,-0.17484 -1.1214,0.0571 -0.57603,0.23193 -0.93962,0.88108 z"
         style="font-size:40px;line-height:1.25;font-family:NewYearNewDay;-inkscape-font-specification:NewYearNewDay;opacity:1;fill:#ffffff;stroke-width:0.262862"
         id="path1252" />
      <g
         id="path1254"
         style="opacity:1;fill:#0000ff;stroke-width:0.5127">
        <path
           id="path1258"
           style="color:#000000;-inkscape-font-specification:NewYearNewDay;fill:#1263DD;stroke-width:1.5381;-inkscape-stroke:none"
           d="m 660.88672,703.08984 c -0.35035,0.0225 -0.69009,0.14376 -1.01953,0.36524 -0.43602,0.26886 -0.69088,0.70765 -0.76563,1.3164 l -2.15039,17.50977 -0.92969,7.58203 c -0.0715,0.58229 0.0565,1.06941 0.38477,1.45899 0.32831,0.38958 0.71606,0.61076 1.16602,0.66601 0.47317,0.085 0.9266,0.006 1.35937,-0.23633 0.45924,-0.23915 0.74992,-0.63231 0.87109,-1.18164 v -0.002 c 1.34572,1.29364 2.91894,2.05245 4.71875,2.27344 2.38212,0.29248 4.54559,-0.36934 6.49024,-1.98438 0.79205,-0.66747 1.44839,-1.42171 1.97266,-2.25976 -0.63853,-1.24521 -1.05599,-2.62669 -1.23829,-4.11133 -0.30174,-2.45748 0.0885,-4.78725 1.16016,-6.83399 -0.0754,-0.11177 -0.1517,-0.22406 -0.23242,-0.33398 -1.49293,-2.06399 -3.4304,-3.24072 -5.8125,-3.5332 l -0.041,-0.004 c -1.77334,-0.21775 -3.46659,0.12415 -5.08203,1.02734 l 1.17383,-9.56836 c 0.0748,-0.60876 -0.0658,-1.09653 -0.42383,-1.46289 -0.35477,-0.39283 -0.77163,-0.61728 -1.24805,-0.67578 -0.1191,-0.0146 -0.23673,-0.0192 -0.35351,-0.0117 z m 4.99609,14.47071 c 0.16761,0.003 0.33773,0.014 0.50977,0.0351 1.37632,0.16899 2.47205,0.88161 3.28515,2.13672 0.8131,1.25511 1.12404,2.65041 0.93555,4.18555 -0.091,0.7411 -0.31163,1.45263 -0.66406,2.13476 -0.32271,0.65892 -0.74091,1.22512 -1.25586,1.69922 -0.48523,0.4509 -1.05341,0.79815 -1.70117,1.04102 -0.64776,0.24287 -1.31574,0.32083 -2.00391,0.23633 l -0.0391,-0.004 c -1.37633,-0.16899 -2.47272,-0.86706 -3.28906,-2.0957 -0.78664,-1.25186 -1.08498,-2.6465 -0.89649,-4.18164 0.19175,-1.5616 0.8332,-2.85388 1.92578,-3.875 0.95601,-0.89349 2.0201,-1.3302 3.19336,-1.3125 z" />
      </g>
      <g
         id="path1272"
         style="opacity:1;fill:#ff0066;stroke-width:0.5127">
        <path
           style="color:#000000;-inkscape-font-specification:NewYearNewDay;fill:#cd6465;stroke-width:1.5381;-inkscape-stroke:none"
           d="m 686.1153,726.47207 q -1.22035,2.20516 -3.68188,2.50739 l -0.0397,0.004 q -1.98509,0.24374 -3.54457,-1.2977 -1.51978,-1.54631 -1.80251,-3.84902 -0.28274,-2.30271 0.8575,-4.17563 1.14025,-1.87292 3.12535,-2.11666 2.69972,-0.33148 4.14984,1.30398 0.79681,0.90968 1.84925,0.61925 1.08728,-0.335 1.37705,-1.25719 0.3246,-0.96676 -0.40254,-1.96559 -2.79647,-3.08218 -7.44158,-2.51183 l -0.0398,0.004 q -3.45406,0.42411 -5.61405,3.51035 -2.16485,3.04654 -1.6725,7.05642 0.49235,4.00989 3.33481,6.4819 2.83757,2.43232 6.33133,2.00334 4.48631,-0.55084 6.58362,-4.4757 0.3239,-0.64428 0.21108,-1.23493 -0.078,-0.63523 -0.52864,-1.0232 -0.45064,-0.38797 -0.99114,-0.52311 -0.54537,-0.17484 -1.1214,0.0571 -0.57603,0.23193 -0.93962,0.88108 z"
           id="path1276" />
      </g>
    </g>
  </g>
</svg>
